<?xml version="1.0" encoding="UTF-8"?>
<!DOCTYPE svg PUBLIC "-//W3C//DTD SVG 1.1//EN" "http://www.w3.org/Graphics/SVG/1.1/DTD/svg11.dtd">
<!-- Creator: CorelDRAW X5 -->
<svg xmlns="http://www.w3.org/2000/svg" xml:space="preserve" width="394px" height="246px" style="shape-rendering:geometricPrecision; text-rendering:geometricPrecision; image-rendering:optimizeQuality; fill-rule:evenodd; clip-rule:evenodd"
viewBox="0 0 394 246"
 xmlns:xlink="http://www.w3.org/1999/xlink">
 <defs>
  <style type="text/css">
   <![CDATA[
    .str0 {stroke:#2B2A29;stroke-width:2.36221}
    .str1 {stroke:#FFED00;stroke-width:2.36221}
    .fil1 {fill:none}
    .fil2 {fill:#FFED00}
    .fil0 {fill:#007DC5}
    .fil4 {fill:#FEFEFE;fill-rule:nonzero}
    .fil3 {fill:#CCE5F4;fill-rule:nonzero}
    .fil5 {fill:white;fill-rule:nonzero}
   ]]>
  </style>
 </defs>
 <g id="Слой_x0020_1">
  <metadata id="CorelCorpID_0Corel-Layer"/>
  <path class="fil0" d="M196.895 25.2213c20.2595,-14.6339 45.2623,-23.2772 72.3167,-23.2772 67.5828,0 122.37,53.9375 122.37,120.474 0,66.5364 -54.7867,120.474 -122.37,120.474 -27.1418,0 -52.219,-8.69884 -72.5127,-23.4201 -20.2595,14.6351 -45.2623,23.2784 -72.3167,23.2784 -67.5828,0 -122.37,-53.9387 -122.37,-120.475 0,-66.5352 54.7867,-120.474 122.37,-120.474 27.1418,0 52.219,8.69884 72.5127,23.4201z"/>
  <g id="_452444720">
   <line id="_452444096" class="fil1 str0" x1="2.0126" y1="122.346" x2="2.0126" y2= "122.346" />
  </g>
  <g id="_452444432">
   <line id="_452444072" class="fil1 str1" x1="2.0126" y1="122.346" x2="391.581" y2= "122.346" />
  </g>
  <path class="fil2" d="M392.499 122.347l-391.048 0c0.0389765,66.756 55.0194,120.86 122.835,120.86 27.156,0 52.2544,-8.6764 72.5907,-23.3658 20.3705,14.7768 45.5434,23.5087 72.7879,23.5087 67.8403,0 122.835,-54.143 122.835,-120.932 0,-0.0236221 0,-0.0472442 0,-0.0708663z"/>
  <path class="fil3" d="M53.5643 153.137c0.0212599,4.52599 0.531497,8.29844 1.48583,11.2949 0.931892,2.99528 2.17559,5.39174 3.66142,7.16694 1.48701,1.7752 3.08505,3.10631 4.74922,3.97206 1.66418,0.86575 3.21733,1.44213 4.6819,1.70788 1.46457,0.26693 2.64095,0.377954 3.52796,0.355513 0.399213,0 0.687403,-0.022441 0.88701,-0.0661419 0.200788,-0.044882 0.311812,-0.067323 0.311812,-0.067323l0 -5.19214c0,0 -0.26693,0 -0.799608,0 -0.643702,0.022441 -1.46457,-0.0661419 -2.50749,-0.28819 -1.04292,-0.199607 -2.12953,-0.643702 -3.30591,-1.30985 -1.17638,-0.687403 -2.30788,-1.70788 -3.35079,-3.08386 -1.04292,-1.39843 -1.90867,-3.23977 -2.57363,-5.57009 -0.666143,-2.32914 -1.02047,-5.25828 -1.04292,-8.78624l0 -14.113c-0.022441,-2.68465 -0.399213,-4.99253 -1.0878,-6.92364 -0.709844,-1.92993 -1.57559,-3.5504 -2.61851,-4.83662 -1.04292,-1.2874 -2.06339,-2.30788 -3.10631,-3.0626 -1.04292,-0.754726 -1.90867,-1.30866 -2.61851,-1.61929 -0.687403,-0.311812 -1.06536,-0.466536 -1.08662,-0.466536l0 -0.265749c0.0212599,0 0.399213,-0.178347 1.08662,-0.511418 0.709844,-0.354331 1.57559,-0.931892 2.61851,-1.73032 1.04292,-0.777167 2.06339,-1.84134 3.10631,-3.12875 1.04292,-1.30866 1.90867,-2.92914 2.61851,-4.81536 0.688584,-1.90867 1.06536,-4.14922 1.0878,-6.72285l0 -12.3827c0.022441,-3.52796 0.376772,-6.4571 1.04292,-8.78624 0.664962,-2.33032 1.53071,-4.1941 2.57363,-5.57009 1.04292,-1.37599 2.17441,-2.4189 3.35079,-3.08386 1.17638,-0.666143 2.263,-1.11024 3.30591,-1.33229 1.04292,-0.199607 1.86378,-0.28819 2.50749,-0.265749 0.532678,0 0.799608,0 0.799608,0l0 -5.19214c0,0 -0.400395,0 -1.19882,0 -0.88701,-0.022441 -2.06339,0.0885829 -3.52796,0.354331 -1.46457,0.26693 -3.01772,0.843309 -4.6819,1.70906 -1.66418,0.864569 -3.26221,2.17441 -4.74922,3.94961 -1.48583,1.7752 -2.72953,4.14922 -3.66142,7.12324 -0.954333,2.97284 -1.46457,6.72285 -1.48583,11.2276l0 10.7847c-0.022441,2.83938 -0.421654,5.21458 -1.17638,7.12206 -0.754726,1.90867 -1.68662,3.43938 -2.79567,4.61576 -1.13268,1.15394 -2.24174,2.04213 -3.35079,2.61851 -1.1315,0.59882 -2.06339,0.998033 -2.81812,1.19882 -0.754726,0.199607 -1.15394,0.310631 -1.17638,0.28819l0 5.3256c0.022441,-0.022441 0.421654,0.0661419 1.17638,0.28819 0.754726,0.199607 1.68662,0.59882 2.81812,1.17638 1.10906,0.59882 2.21811,1.48583 3.35079,2.63977 1.10906,1.17638 2.04095,2.70709 2.79567,4.61576 0.754726,1.90867 1.15394,4.28269 1.17638,7.12324l0 12.515z"/>
  <path class="fil3" d="M322.309 172.383l0 5.19214c0,0 0.111024,0.022441 0.310631,0.067323 0.199607,0.0437009 0.487796,0.0661419 0.888191,0.0661419 0.88701,0.022441 2.06339,-0.0885829 3.52796,-0.355513 1.46457,-0.265749 3.01772,-0.843309 4.6819,-1.70788 1.66536,-0.86575 3.26221,-2.19685 4.74922,-3.97206 1.50945,-1.77638 2.72953,-4.17284 3.68387,-7.16812 0.931892,-2.99646 1.44213,-6.76891 1.46457,-11.2961l0 -12.515c0.022441,-2.84056 0.421654,-5.21576 1.17638,-7.12324 0.754726,-1.90867 1.68662,-3.44056 2.79567,-4.61576 1.13268,-1.15394 2.24174,-2.04213 3.35079,-2.64095 1.13268,-0.57756 2.06457,-0.976774 2.8193,-1.17638 0.753545,-0.222048 1.15276,-0.310631 1.1752,-0.28819l0 -5.32678c-0.022441,0.022441 -0.421654,-0.0885829 -1.1752,-0.28819 -0.754726,-0.199607 -1.68662,-0.59882 -2.8193,-1.19764 -1.10906,-0.57756 -2.21811,-1.46575 -3.35079,-2.61851 -1.10906,-1.17638 -2.04095,-2.70827 -2.79567,-4.61576 -0.754726,-1.90867 -1.15394,-4.28387 -1.17638,-7.12442l0 -10.7847c-0.022441,-4.50473 -0.532678,-8.25474 -1.46457,-11.2288 -0.954333,-2.97402 -2.17441,-5.34804 -3.68387,-7.12324 -1.48701,-1.7752 -3.08386,-3.08505 -4.74922,-3.94961 -1.66418,-0.86575 -3.21733,-1.44331 -4.6819,-1.70906 -1.46457,-0.26693 -2.64095,-0.376772 -3.52796,-0.355513 -0.799608,0 -1.19882,0 -1.19882,0l0 5.19332c0,0 0.26693,0 0.798427,0 0.643702,-0.022441 1.46457,0.0661419 2.50867,0.265749 1.04292,0.222048 2.12953,0.666143 3.30591,1.33229 1.17638,0.664962 2.30788,1.70788 3.35079,3.08386 1.06536,1.37599 1.90867,3.23977 2.57481,5.57009 0.687403,2.33032 1.02047,5.25946 1.04292,8.78742l0 12.3827c0.022441,2.57481 0.399213,4.81655 1.08662,6.72403 0.711025,1.88622 1.57559,3.5067 2.61851,4.81536 1.04292,1.2874 2.06457,2.35276 3.10749,3.12993 1.04292,0.798427 1.90867,1.37599 2.61851,1.73032 0.687403,0.333072 1.06536,0.510237 1.08662,0.510237l0 0.26693c-0.0212599,0 -0.399213,0.154725 -1.08662,0.465355 -0.709844,0.310631 -1.57559,0.86575 -2.61851,1.62048 -1.04292,0.754726 -2.06457,1.7752 -3.10749,3.0626 -1.04292,1.28622 -1.90748,2.9067 -2.61851,4.8378 -0.687403,1.92993 -1.06418,4.2378 -1.08662,6.92364l0 14.113c-0.022441,3.52914 -0.355513,6.45828 -1.04292,8.78742 -0.666143,2.33032 -1.50945,4.17284 -2.57481,5.57009 -1.04292,1.37599 -2.17441,2.39764 -3.35079,3.08505 -1.17638,0.666143 -2.263,1.10906 -3.30591,1.30985 -1.0441,0.220867 -1.86496,0.310631 -2.50867,0.28819 -0.531497,0 -0.798427,0 -0.798427,0z"/>
  <path class="fil4" d="M95.3683 98.1167c-0.380316,-1.69489 -0.950789,-2.9315 -1.7315,-3.71221 -0.78071,-0.779529 -1.90276,-1.17047 -3.37796,-1.17047 -1.97008,0 -3.44528,0.60945 -4.4256,1.83662 -1.26496,1.61811 -1.90276,4.20591 -1.90276,7.75631 0,3.35906 0.542127,5.71891 1.63701,7.07954 1.08425,1.35118 2.51221,2.03622 4.27206,2.03622 1.56969,0 2.85473,-0.494883 3.88229,-1.46575 1.01811,-0.980317 1.57087,-2.25473 1.64646,-3.83505l8.22167 0c-0.294095,2.53229 -1.07481,4.71143 -2.3315,6.55749 -1.25551,1.83662 -2.87363,3.2067 -4.85316,4.11969 -1.97835,0.914175 -4.19647,1.37008 -6.64135,1.37008 -3.01654,0 -5.60552,-0.666143 -7.76576,-1.99843 -2.16969,-1.32166 -3.75828,-3.21615 -4.76694,-5.67048 -1.01811,-2.45552 -1.52244,-5.08229 -1.52244,-7.88978 0,-3.47245 0.570474,-6.50789 1.70315,-9.08742 1.13268,-2.5878 2.83583,-4.49174 5.10946,-5.71891 2.28426,-1.22717 4.79647,-1.83662 7.54608,-1.83662 1.77992,0 3.41694,0.227953 4.91103,0.69449 1.48465,0.466536 2.74016,1.05709 3.75828,1.78937 1.01811,0.722836 1.87559,1.56024 2.57008,2.50276 0.685041,0.950789 1.18937,1.90276 1.513,2.87363 0.323623,0.970868 0.579922,2.21693 0.77008,3.76891l-8.22167 0zm12.0378 4.45276c0,-3.04489 0.647245,-5.84293 1.94174,-8.40238 1.29331,-2.55945 3.15946,-4.47284 5.60434,-5.7567 2.44607,-1.28504 5.12009,-1.92284 8.04096,-1.92284 3.02599,0 5.75789,0.675592 8.19332,2.01733 2.43662,1.35118 4.26379,3.28347 5.46261,5.81458 1.20827,2.53111 1.81772,5.28072 1.81772,8.25002 0,3.12166 -0.637797,5.95749 -1.92284,8.4886 -1.28504,2.54056 -3.14056,4.44332 -5.56655,5.71891 -2.42717,1.27559 -5.08111,1.91221 -7.98427,1.91221 -2.92087,0 -5.59489,-0.646064 -8.04096,-1.94056 -2.44489,-1.29449 -4.31103,-3.2067 -5.60434,-5.75789 -1.29449,-2.54056 -1.94174,-5.34804 -1.94174,-8.42128zm8.22167 0c0,2.71182 0.60945,4.94883 1.81772,6.70867 1.20827,1.75158 3.07323,2.63623 5.60434,2.63623 2.18977,0 3.94017,-0.751183 5.25355,-2.24646 1.31339,-1.49292 1.97008,-3.92954 1.97008,-7.2886 0,-2.69292 -0.581104,-4.89095 -1.73268,-6.59411 -1.15158,-1.70433 -2.98819,-2.55119 -5.49096,-2.55119 -2.53111,0 -4.39607,0.875199 -5.60434,2.63623 -1.20827,1.7504 -1.81772,3.98741 -1.81772,6.69923zm48.0946 -25.8449l7.91694 0 0 41.0422 -7.58387 0 0 -4.23426c-2.0563,3.43465 -5.03387,5.1567 -8.91734,5.1567 -2.32205,0 -4.49174,-0.59882 -6.49962,-1.79764 -2.0067,-1.2 -3.58702,-3.04489 -4.73859,-5.5193 -1.15158,-2.48386 -1.72205,-5.3197 -1.72205,-8.51695 0,-3.29292 0.570474,-6.20434 1.72205,-8.74608 1.15158,-2.53111 2.70237,-4.44332 4.6441,-5.70946 1.94174,-1.27441 4.14922,-1.91221 6.62364,-1.91221 3.71103,0 6.56576,1.56969 8.55474,4.71025l0 -14.4733zm-6.60474 35.1898c1.95119,0 3.57757,-0.751183 4.88151,-2.24646 1.29449,-1.49292 1.95119,-3.83387 1.95119,-7.01222 0,-3.14056 -0.675592,-5.5004 -2.02678,-7.07127 -1.34173,-1.56969 -2.9693,-2.3504 -4.86261,-2.3504 -1.26614,0 -2.39882,0.351969 -3.41694,1.07599 -1.00866,0.713387 -1.80709,1.79764 -2.37874,3.24449 -0.579922,1.44685 -0.86575,3.2067 -0.86575,5.27245 0,3.10158 0.628348,5.39529 1.89331,6.87049 1.26614,1.4752 2.87481,2.21693 4.82481,2.21693zm27.5682 -6.88938c0.056693,2.26418 0.713387,4.0441 1.97953,5.33859 1.26496,1.29331 2.89253,1.94056 4.88151,1.94056 1.37008,0 2.53111,-0.314174 3.45355,-0.950789 0.933073,-0.628348 1.58032,-1.50355 1.95119,-2.61733l8.17443 0c-0.408662,1.98898 -1.15158,3.69213 -2.23583,5.12954 -1.07599,1.42677 -2.68347,2.5878 -4.83426,3.4819 -2.15079,0.895277 -4.43505,1.34173 -6.87049,1.34173 -2.82638,0 -5.31025,-0.589371 -7.46104,-1.75985 -2.14134,-1.17047 -3.8445,-3.01654 -5.10001,-5.54765 -1.2567,-2.53111 -1.88504,-5.5004 -1.88504,-8.91734 0,-4.3193 1.06654,-7.93584 3.17835,-10.8768 2.43662,-3.39686 6.14765,-5.10001 11.1248,-5.10001 2.12245,0 4.03465,0.276379 5.74726,0.837403 1.70315,0.551576 3.17835,1.41733 4.41615,2.5878 1.23662,1.17047 2.17914,2.55119 2.82638,4.13032 0.655513,1.58032 1.08425,3.34961 1.28386,5.3197 0.133465,1.30394 0.190158,3.1878 0.17126,5.66222l-20.8016 0zm12.5988 -5.2441c-0.124016,-2.13071 -0.542127,-3.71103 -1.24607,-4.73859 -1.00866,-1.44685 -2.56064,-2.16969 -4.663,-2.16969 -1.44685,0 -2.64567,0.314174 -3.60709,0.942522 -0.960238,0.637797 -1.6937,1.54134 -2.21693,2.73071 -0.351969,0.818506 -0.579922,1.90276 -0.69449,3.23505l12.4276 0zm31.3453 -1.66418c-0.380316,-1.69489 -0.950789,-2.9315 -1.7315,-3.71221 -0.78071,-0.779529 -1.90276,-1.17047 -3.37796,-1.17047 -1.97008,0 -3.44528,0.60945 -4.4256,1.83662 -1.26496,1.61811 -1.90276,4.20591 -1.90276,7.75631 0,3.35906 0.542127,5.71891 1.63701,7.07954 1.08425,1.35118 2.51221,2.03622 4.27206,2.03622 1.57087,0 2.85473,-0.494883 3.88347,-1.46575 1.01811,-0.980317 1.56969,-2.25473 1.64528,-3.83505l8.22285 0c-0.295276,2.53229 -1.07599,4.71143 -2.3315,6.55749 -1.2567,1.83662 -2.87481,3.2067 -4.85316,4.11969 -1.97953,0.914175 -4.19765,1.37008 -6.64253,1.37008 -3.01654,0 -5.60552,-0.666143 -7.76458,-1.99843 -2.16969,-1.32166 -3.75946,-3.21615 -4.76812,-5.67048 -1.01811,-2.45552 -1.52244,-5.08229 -1.52244,-7.88978 0,-3.47245 0.570474,-6.50789 1.70315,-9.08742 1.13268,-2.5878 2.83583,-4.49174 5.11064,-5.71891 2.28308,-1.22717 4.79529,-1.83662 7.54608,-1.83662 1.77874,0 3.41575,0.227953 4.90985,0.69449 1.48465,0.466536 2.74016,1.05709 3.75946,1.78937 1.01811,0.722836 1.87441,1.56024 2.5689,2.50276 0.685041,0.950789 1.18937,1.90276 1.513,2.87363 0.323623,0.970868 0.579922,2.21693 0.771261,3.76891l-8.22285 0zm22.0489 -21.4406l0 41.0906 -7.91694 0 0 -41.0906 7.91694 0zm7.77521 10.7055l7.91694 0 0 18.2906c0,1.93111 0.304725,3.35906 0.894096,4.29095 0.837403,1.29449 2.22638,1.95119 4.15867,1.95119 1.33229,0 2.51221,-0.333072 3.53977,-0.989766 1.01811,-0.666143 1.74213,-1.4941 2.16024,-2.51221 0.419292,-1.00866 0.628348,-2.52166 0.628348,-4.52954l0 -16.5012 7.91694 0 0 30.3851 -7.61222 0 0 -4.29213c-0.970868,1.65591 -2.0752,2.87363 -3.32127,3.65434 -1.65591,1.03701 -3.64489,1.56024 -5.96694,1.56024 -1.64646,0 -3.09213,-0.2563 -4.32048,-0.751183 -1.22717,-0.504332 -2.23583,-1.14213 -3.02599,-1.90394 -0.788978,-0.760631 -1.39843,-1.57914 -1.82717,-2.46378 -0.418111,-0.884647 -0.732285,-2.03622 -0.912994,-3.47363 -0.152363,-1.03701 -0.227953,-2.51221 -0.227953,-4.42442l0 -18.2906zm34.5993 -10.6571l7.91813 0 0 14.6162c1.02756,-1.53189 2.3315,-2.72127 3.92954,-3.56812 1.59922,-0.856301 3.29292,-1.28504 5.07284,-1.28504 2.12126,0 4.15749,0.570474 6.11812,1.7126 1.97008,1.14213 3.51142,2.95985 4.63465,5.43426 1.12323,2.48386 1.68426,5.38584 1.68426,8.71655 0,2.94922 -0.485434,5.70001 -1.44685,8.22167 -0.970868,2.53111 -2.42599,4.51064 -4.37717,5.95749 -1.95119,1.43622 -4.22481,2.15906 -6.80434,2.15906 -2.08347,0 -3.80552,-0.380316 -5.15788,-1.1315 -1.36063,-0.752364 -2.61615,-1.96063 -3.79607,-3.60709l0 3.81615 -7.77521 0 0 -41.0422zm14.6646 35.1898c1.82717,0 3.35906,-0.751183 4.59686,-2.26536 1.24607,-1.50355 1.87441,-3.86339 1.87441,-7.07954 0,-3.21615 -0.628348,-5.576 -1.88504,-7.07954 -1.25551,-1.50355 -2.87363,-2.25591 -4.86261,-2.25591 -1.95,0 -3.56812,0.752364 -4.84371,2.25591 -1.26496,1.50355 -1.90276,3.91064 -1.90276,7.22246 0,2.20748 0.333072,4.01576 0.999215,5.40474 0.675592,1.39961 1.513,2.37874 2.54056,2.94095 1.01811,0.570474 2.17914,0.856301 3.48308,0.856301z"/>
  <path class="fil5" d="M121.578 137.972l7.91694 0 0 18.2894c0,1.93229 0.304725,3.35906 0.894096,4.29213 0.837403,1.29449 2.22638,1.95 4.15867,1.95 1.33229,0 2.51221,-0.333072 3.53977,-0.989766 1.01811,-0.664962 1.74213,-1.49292 2.16024,-2.51221 0.419292,-1.00748 0.628348,-2.52166 0.628348,-4.52836l0 -16.5012 7.91694 0 0 30.3839 -7.61222 0 0 -4.29095c-0.970868,1.65591 -2.0752,2.87363 -3.32127,3.65434 -1.65591,1.03701 -3.64489,1.56024 -5.96694,1.56024 -1.64646,0 -3.09213,-0.257481 -4.32048,-0.752364 -1.22717,-0.504332 -2.23583,-1.14095 -3.02599,-1.90276 -0.788978,-0.760631 -1.39843,-1.57914 -1.82717,-2.46497 -0.418111,-0.884647 -0.732285,-2.03622 -0.912994,-3.47245 -0.152363,-1.03819 -0.227953,-2.51221 -0.227953,-4.4256l0 -18.2894zm41.3753 9.66852l-7.86025 0c0.180709,-3.10276 1.40788,-5.64332 3.66379,-7.6134 2.25473,-1.97008 5.70946,-2.9504 10.3536,-2.9504 2.00788,0 3.83505,0.210237 5.47088,0.628348 1.63701,0.419292 2.84528,0.95197 3.64489,1.61811 0.799608,0.656694 1.41851,1.4941 1.84607,2.52166 0.590552,1.33229 0.894096,2.99764 0.894096,4.98662l-0.0283465 15.5303c0,1.80709 0.152363,2.99764 0.466536,3.56812 0.323623,0.600001 0.78071,0.989766 1.37008,1.17047l0 1.25551 -8.726 0c-0.485434,-1.1504 -0.732285,-2.3315 -0.751183,-3.53977 -1.61811,1.6937 -3.12166,2.85473 -4.52009,3.50198 -1.39016,0.637797 -3.05552,0.961419 -4.98662,0.961419 -1.98898,0 -3.72048,-0.380316 -5.18623,-1.14213 -1.46575,-0.771261 -2.5689,-1.87441 -3.29292,-3.32127 -0.722836,-1.44567 -1.08425,-3.00709 -1.08425,-4.6819 0,-2.53111 0.666143,-4.65237 1.98898,-6.35671 1.33229,-1.7126 3.77717,-2.83583 7.34647,-3.37796l6.69804 -0.999215c1.07599,-0.152363 1.80827,-0.42756 2.20867,-0.827954 0.399213,-0.399213 0.59882,-0.94134 0.59882,-1.62638 0,-1.09488 -0.361418,-1.95119 -1.0937,-2.57008 -0.733466,-0.608269 -1.97008,-0.912994 -3.69213,-0.912994 -1.78937,0 -3.05552,0.304725 -3.8067,0.912994 -0.752364,0.618899 -1.26614,1.70315 -1.52244,3.26457zm10.115 5.88072c-0.685041,0.361418 -1.35118,0.637797 -1.98898,0.856301 -0.636615,0.209056 -1.50355,0.42756 -2.57835,0.656694 -2.04567,0.389765 -3.33072,0.685041 -3.8445,0.884647 -0.856301,0.351969 -1.50355,0.837403 -1.92166,1.4563 -0.428741,0.60945 -0.647245,1.36063 -0.647245,2.25473 0,1.20945 0.370867,2.17914 1.1126,2.9315 0.742915,0.741734 1.71378,1.1126 2.90316,1.1126 1.7504,0 3.34961,-0.570474 4.79529,-1.70315 1.44685,-1.1315 2.16969,-2.93032 2.16969,-5.37639l0 -3.07323zm14.9788 14.8347l0 -8.55474 8.55474 0 0 8.55474 -8.55474 0zm14.1024 -15.1961c0,-3.04607 0.647245,-5.84293 1.94174,-8.40356 1.29331,-2.55945 3.15946,-4.47166 5.60434,-5.7567 2.44607,-1.28504 5.12009,-1.92284 8.04096,-1.92284 3.02599,0 5.75789,0.676773 8.19332,2.01851 2.43662,1.35118 4.26379,3.28229 5.46261,5.8134 1.20827,2.53111 1.81772,5.2819 1.81772,8.2512 0,3.12048 -0.637797,5.95631 -1.92284,8.48742 -1.28504,2.54174 -3.14056,4.4445 -5.56655,5.71891 -2.42717,1.27559 -5.08111,1.91339 -7.98427,1.91339 -2.92087,0 -5.59489,-0.647245 -8.04096,-1.94174 -2.44489,-1.29331 -4.31103,-3.2067 -5.60434,-5.7567 -1.29449,-2.54056 -1.94174,-5.34804 -1.94174,-8.42128zm8.22167 0c0,2.71182 0.60945,4.94765 1.81772,6.70867 1.20827,1.7504 3.07323,2.63504 5.60434,2.63504 2.18977,0 3.94017,-0.751183 5.25355,-2.24528 1.31339,-1.4941 1.97008,-3.92954 1.97008,-7.2886 0,-2.6941 -0.581104,-4.89214 -1.73268,-6.59529 -1.15158,-1.70315 -2.98701,-2.55001 -5.49096,-2.55001 -2.53111,0 -4.39607,0.875199 -5.60434,2.63623 -1.20827,1.7504 -1.81772,3.98623 -1.81772,6.69923zm46.0572 -15.8634l0 8.11655c-0.703938,-0.0944884 -1.33229,-0.142914 -1.89331,-0.142914 -2.02678,0 -3.64489,0.372048 -4.86261,1.11378 -1.21772,0.752364 -2.01733,1.63701 -2.39764,2.68347 -0.381497,1.03701 -0.571655,2.62678 -0.571655,4.76812l0 14.5205 -7.91694 0 0 -30.3839 7.6134 0 0 5.26182c0.42756,-1.05591 1.07481,-2.08347 1.95,-3.07323 0.86575,-0.999215 1.85552,-1.75985 2.9693,-2.29371 1.10433,-0.523229 2.25473,-0.790159 3.44528,-0.790159 0.551576,0 1.1126,0.0767718 1.66418,0.219685zm22.1634 0.675592l7.83191 0 0 28.7953c0,2.78859 -0.276379,4.98662 -0.818506,6.59411 -0.551576,1.60866 -1.48465,2.97875 -2.81693,4.11143 -1.33229,1.13268 -2.9126,1.97953 -4.73859,2.52166 -1.83662,0.551576 -3.98741,0.827954 -6.45238,0.827954 -4.50119,0 -7.89805,-0.799608 -10.1823,-2.38819 -2.28308,-1.58977 -3.51142,-3.8445 -3.67324,-6.7571l8.69766 0c0.105118,0.885829 0.523229,1.58977 1.24725,2.08465 0.950789,0.675592 2.29252,1.00866 4.01576,1.00866 2.39764,0 4.14804,-0.628348 5.26182,-1.86496 1.10433,-1.24725 1.65591,-3.59764 1.65591,-7.06183 0,-0.446458 -0.00944884,-1.1504 -0.0283465,-2.11182 -1.00866,1.64646 -2.06457,2.79804 -3.17835,3.4252 -1.50355,0.895277 -3.36851,1.34173 -5.576,1.34173 -2.39882,0 -4.58741,-0.59882 -6.57639,-1.78819 -1.98898,-1.18937 -3.52087,-2.95985 -4.60513,-5.31025 -1.07599,-2.3504 -1.61811,-5.08229 -1.61811,-8.18387 0,-2.78859 0.399213,-5.25237 1.19882,-7.38427 0.799608,-2.14134 1.81772,-3.8445 3.05434,-5.12954 1.2378,-1.28504 2.55119,-2.20748 3.94961,-2.77796 1.38898,-0.562206 2.9693,-0.848033 4.73859,-0.848033 1.87559,0 3.52087,0.409843 4.92993,1.2378 1.41733,0.827954 2.64567,2.16024 3.68268,4.00631l0 -4.34883zm-6.68978 23.752c1.95,0 3.54922,-0.724017 4.80592,-2.16024 1.25551,-1.44685 1.88386,-3.66379 1.88386,-6.65198 0,-3.06379 -0.637797,-5.34804 -1.91339,-6.84214 -1.27441,-1.50355 -2.88308,-2.24528 -4.83308,-2.24528 -1.89449,0 -3.46418,0.741734 -4.71143,2.22638 -1.24607,1.48465 -1.86496,3.77835 -1.86496,6.86104 0,2.98819 0.60945,5.20513 1.83662,6.65198 1.22835,1.43622 2.82638,2.16024 4.79647,2.16024z"/>
 </g>
</svg>
